# Blender v2.83.4 OBJ File: 'midtermcgscene.blend'
# www.blender.org
mtllib shield.mtl
o Shield_Cube.003
v -1.503750 0.773072 -3.984429
v -1.678590 1.910461 -4.837955
v -1.503750 0.705933 -4.073897
v -1.678590 1.843323 -4.927422
v -0.371505 0.778696 -3.988650
v -0.199247 1.936915 -4.857807
v -0.371505 0.711557 -4.078117
v -0.199247 1.869777 -4.947274
v -0.935586 0.549873 -3.637589
v -0.935586 2.149547 -4.838024
v -0.743158 0.672168 -3.698401
v -1.129386 0.670244 -3.696946
v -0.935586 0.564339 -3.618312
v -0.784422 0.662430 -3.671943
v -0.831549 0.655113 -3.652220
v -0.882726 0.650496 -3.639992
v -0.935988 0.648758 -3.635727
v -0.989287 0.649965 -3.639590
v -1.040574 0.654071 -3.651433
v -1.087880 0.660918 -3.670799
v -1.187662 2.112794 -4.778886
v -0.685713 2.121747 -4.785630
v -0.935586 2.164012 -4.818747
v -1.133683 2.131238 -4.773682
v -1.072176 2.145324 -4.770102
v -1.005505 2.154513 -4.768284
v -0.936231 2.158449 -4.768298
v -0.867018 2.156983 -4.770144
v -0.800524 2.150170 -4.773751
v -0.739305 2.138272 -4.778980
vt 0.625000 0.000000
vt 0.375000 0.250000
vt 0.375000 0.000000
vt 0.625000 0.375000
vt 0.375000 0.500000
vt 0.375000 0.375000
vt 0.625000 0.750000
vt 0.375000 0.750000
vt 0.792408 0.750000
vt 0.750000 0.500000
vt 0.875000 0.750000
vt 0.625000 0.917408
vt 0.375000 1.000000
vt 0.375000 0.917637
vt 0.707582 0.750000
vt 0.292642 0.750000
vt 0.250000 0.500000
vt 0.207363 0.750000
vt 0.125000 0.750000
vt 0.769204 0.399414
vt 0.760594 0.394345
vt 0.726562 0.203279
vt 0.751732 0.379331
vt 0.742959 0.354951
vt 0.695108 0.469209
vt 0.678711 0.399652
vt 0.678711 0.317537
vt 0.250000 0.635980
vt 0.250000 0.630694
vt 0.250000 0.553865
vt 0.250000 0.615033
vt 0.250000 0.589598
vt 0.250000 0.555367
vt 0.942799 0.415039
vt 0.933810 0.408052
vt 0.900391 0.218904
vt 0.923735 0.387358
vt 0.912961 0.353754
vt 0.833860 0.371332
vt 0.821289 0.319203
vt 0.821289 0.236482
vt 0.821289 0.313936
vt 0.750000 0.631319
vt 0.750000 0.615732
vt 0.750000 0.553865
vt 0.750000 0.590424
vt 0.750000 0.556368
vt 0.019531 0.375645
vt 0.269487 0.367921
vt 0.269531 0.375416
vt 0.019498 0.368118
vt 0.269357 0.362271
vt 0.019403 0.362462
vt 0.269147 0.358682
vt 0.374717 0.900886
vt 0.620659 0.875000
vt 0.624616 0.900674
vt 0.374619 0.849110
vt 0.624129 0.849320
vt 0.374827 0.845542
vt 0.624604 0.845731
vt 0.374956 0.839886
vt 0.624899 0.840079
vt 0.375000 0.832358
vt 0.625000 0.832582
vt 0.625000 0.250000
vt 0.625000 0.500000
vt 0.875000 0.500000
vt 0.625000 1.000000
vt 0.125000 0.500000
vt 0.019248 0.358894
vt 0.384747 0.875000
vn -0.9925 -0.0976 0.0732
vn -0.4123 -0.5468 -0.7287
vn 0.9930 -0.0945 0.0709
vn -0.2493 0.7746 -0.5813
vn -0.4176 0.5343 0.7349
vn 0.2101 0.7820 -0.5868
vn 0.5724 -0.6559 0.4922
vn -0.5627 -0.6612 0.4962
vn 0.4099 -0.5475 -0.7296
vn 0.5516 -0.4754 0.6854
vn 0.3988 -0.1174 0.9095
vn 0.2218 0.1078 0.9691
vn 0.0716 0.2018 0.9768
vn -0.0663 0.2013 0.9773
vn -0.2156 0.1060 0.9707
vn -0.3910 -0.1207 0.9124
vn -0.5422 -0.4803 0.6894
vn -0.2462 0.8513 -0.4632
vn -0.2064 0.9551 -0.2126
vn -0.1365 0.9906 -0.0026
vn -0.0564 0.9925 0.1087
vn 0.0240 0.9937 0.1099
vn 0.1019 0.9948 0.0001
vn 0.1691 0.9627 -0.2113
vn 0.2073 0.8599 -0.4665
vn -0.2698 0.5708 0.7755
vn -0.1803 0.5866 0.7895
vn -0.1038 0.5954 0.7967
vn -0.0339 0.5995 0.7996
vn 0.0340 0.5995 0.7996
vn 0.1042 0.5954 0.7966
vn 0.1814 0.5865 0.7893
vn 0.2721 0.5705 0.7750
vn 0.4201 0.5338 0.7339
vn -0.3200 -0.5377 -0.7800
vn -0.3158 0.5380 0.7816
vn 0.2100 0.7820 -0.5868
vn 0.3158 -0.5380 -0.7816
vn -0.3505 0.5550 0.7544
vn -0.2353 0.5800 0.7799
vn -0.1356 0.5936 0.7932
vn -0.0443 0.5995 0.7991
vn 0.0444 0.5995 0.7991
vn 0.1360 0.5936 0.7932
vn 0.2362 0.5800 0.7796
vn 0.3524 0.5546 0.7538
vn 0.3200 0.5377 0.7800
usemtl Material.012
s off
f 2/1/1 3/2/1 1/3/1
f 10/4/2 7/5/2 9/6/2
f 7/5/3 6/7/3 5/8/3
f 21/9/4 10/10/4 2/11/4
f 21/12/5 1/13/5 12/14/5
f 10/10/6 22/15/6 6/7/6
f 11/16/7 9/17/7 5/8/7
f 9/17/8 12/18/8 1/19/8
f 3/2/9 10/4/9 9/6/9
f 11/20/10 14/21/10 13/22/10
f 14/21/11 15/23/11 13/22/11
f 15/23/12 16/24/12 13/22/12
f 16/25/13 17/26/13 13/27/13
f 17/28/14 18/29/14 13/30/14
f 18/29/15 19/31/15 13/30/15
f 19/31/16 20/32/16 13/30/16
f 20/32/17 12/33/17 13/30/17
f 21/34/18 24/35/18 23/36/18
f 24/35/19 25/37/19 23/36/19
f 25/37/20 26/38/20 23/36/20
f 26/39/21 27/40/21 23/41/21
f 27/40/22 28/42/22 23/41/22
f 28/43/23 29/44/23 23/45/23
f 29/44/24 30/46/24 23/45/24
f 30/46/25 22/47/25 23/45/25
f 12/48/26 24/49/26 21/50/26
f 20/51/27 25/52/27 24/49/27
f 19/53/28 26/54/28 25/52/28
f 18/55/29 27/56/29 26/57/29
f 27/56/30 16/58/30 28/59/30
f 28/59/31 15/60/31 29/61/31
f 29/61/32 14/62/32 30/63/32
f 30/63/33 11/64/33 22/65/33
f 5/8/34 22/65/34 11/64/34
f 2/1/1 4/66/1 3/2/1
f 10/4/35 8/67/35 7/5/35
f 7/5/3 8/67/3 6/7/3
f 23/45/4 10/10/4 21/9/4
f 10/10/4 4/68/4 2/11/4
f 21/12/36 2/69/36 1/13/36
f 6/7/37 8/67/37 10/10/37
f 10/10/6 23/45/6 22/15/6
f 13/30/7 9/17/7 11/16/7
f 9/17/7 7/5/7 5/8/7
f 1/19/8 3/70/8 9/17/8
f 9/17/8 13/30/8 12/18/8
f 3/2/38 4/66/38 10/4/38
f 12/48/39 20/51/39 24/49/39
f 20/51/40 19/53/40 25/52/40
f 19/53/41 18/71/41 26/54/41
f 18/55/42 17/72/42 27/56/42
f 27/56/43 17/72/43 16/58/43
f 28/59/44 16/58/44 15/60/44
f 29/61/45 15/60/45 14/62/45
f 30/63/46 14/62/46 11/64/46
f 5/8/47 6/7/47 22/65/47
